%TF.GenerationSoftware,KiCad,Pcbnew,9.0.6*%
%TF.CreationDate,2026-03-09T23:13:51-05:00*%
%TF.ProjectId,cm5_unified_carrier,636d355f-756e-4696-9669-65645f636172,A*%
%TF.SameCoordinates,Original*%
%TF.FileFunction,Legend,Bot*%
%TF.FilePolarity,Positive*%
%FSLAX46Y46*%
G04 Gerber Fmt 4.6, Leading zero omitted, Abs format (unit mm)*
G04 Created by KiCad (PCBNEW 9.0.6) date 2026-03-09 23:13:51*
%MOMM*%
%LPD*%
G01*
G04 APERTURE LIST*
G04 Aperture macros list*
%AMRoundRect*
0 Rectangle with rounded corners*
0 $1 Rounding radius*
0 $2 $3 $4 $5 $6 $7 $8 $9 X,Y pos of 4 corners*
0 Add a 4 corners polygon primitive as box body*
4,1,4,$2,$3,$4,$5,$6,$7,$8,$9,$2,$3,0*
0 Add four circle primitives for the rounded corners*
1,1,$1+$1,$2,$3*
1,1,$1+$1,$4,$5*
1,1,$1+$1,$6,$7*
1,1,$1+$1,$8,$9*
0 Add four rect primitives between the rounded corners*
20,1,$1+$1,$2,$3,$4,$5,0*
20,1,$1+$1,$4,$5,$6,$7,0*
20,1,$1+$1,$6,$7,$8,$9,0*
20,1,$1+$1,$8,$9,$2,$3,0*%
G04 Aperture macros list end*
%ADD10C,0.300000*%
%ADD11C,0.150000*%
%ADD12C,0.508000*%
%ADD13C,1.531200*%
%ADD14C,0.836200*%
%ADD15C,0.010000*%
%ADD16RoundRect,0.102000X-1.270000X1.270000X-1.270000X-1.270000X1.270000X-1.270000X1.270000X1.270000X0*%
%ADD17C,2.744000*%
%ADD18C,5.600000*%
%ADD19RoundRect,0.102000X-1.102500X1.102500X-1.102500X-1.102500X1.102500X-1.102500X1.102500X1.102500X0*%
%ADD20C,2.409000*%
%ADD21C,3.234000*%
%ADD22O,3.220000X1.712000*%
%ADD23O,1.712000X3.220000*%
%ADD24C,6.100000*%
%ADD25O,1.900000X1.100000*%
%ADD26C,1.450000*%
%ADD27R,1.700000X1.700000*%
%ADD28C,1.700000*%
%ADD29C,1.092200*%
%ADD30C,2.692400*%
%ADD31C,2.800000*%
%ADD32R,1.408000X1.408000*%
%ADD33C,1.408000*%
%ADD34C,1.250000*%
%ADD35C,2.400000*%
G04 APERTURE END LIST*
D10*
X189905489Y-100086080D02*
X189905489Y-98586080D01*
X189905489Y-98586080D02*
X189334060Y-98586080D01*
X189334060Y-98586080D02*
X189191203Y-98657509D01*
X189191203Y-98657509D02*
X189119774Y-98728937D01*
X189119774Y-98728937D02*
X189048346Y-98871794D01*
X189048346Y-98871794D02*
X189048346Y-99086080D01*
X189048346Y-99086080D02*
X189119774Y-99228937D01*
X189119774Y-99228937D02*
X189191203Y-99300366D01*
X189191203Y-99300366D02*
X189334060Y-99371794D01*
X189334060Y-99371794D02*
X189905489Y-99371794D01*
X187548346Y-99943223D02*
X187619774Y-100014652D01*
X187619774Y-100014652D02*
X187834060Y-100086080D01*
X187834060Y-100086080D02*
X187976917Y-100086080D01*
X187976917Y-100086080D02*
X188191203Y-100014652D01*
X188191203Y-100014652D02*
X188334060Y-99871794D01*
X188334060Y-99871794D02*
X188405489Y-99728937D01*
X188405489Y-99728937D02*
X188476917Y-99443223D01*
X188476917Y-99443223D02*
X188476917Y-99228937D01*
X188476917Y-99228937D02*
X188405489Y-98943223D01*
X188405489Y-98943223D02*
X188334060Y-98800366D01*
X188334060Y-98800366D02*
X188191203Y-98657509D01*
X188191203Y-98657509D02*
X187976917Y-98586080D01*
X187976917Y-98586080D02*
X187834060Y-98586080D01*
X187834060Y-98586080D02*
X187619774Y-98657509D01*
X187619774Y-98657509D02*
X187548346Y-98728937D01*
X186905489Y-100086080D02*
X186905489Y-98586080D01*
X186905489Y-99300366D02*
X186048346Y-99300366D01*
X186048346Y-100086080D02*
X186048346Y-98586080D01*
X184191203Y-100086080D02*
X184191203Y-98586080D01*
X184191203Y-98586080D02*
X183619774Y-98586080D01*
X183619774Y-98586080D02*
X183476917Y-98657509D01*
X183476917Y-98657509D02*
X183405488Y-98728937D01*
X183405488Y-98728937D02*
X183334060Y-98871794D01*
X183334060Y-98871794D02*
X183334060Y-99086080D01*
X183334060Y-99086080D02*
X183405488Y-99228937D01*
X183405488Y-99228937D02*
X183476917Y-99300366D01*
X183476917Y-99300366D02*
X183619774Y-99371794D01*
X183619774Y-99371794D02*
X184191203Y-99371794D01*
X182476917Y-100086080D02*
X182619774Y-100014652D01*
X182619774Y-100014652D02*
X182691203Y-99943223D01*
X182691203Y-99943223D02*
X182762631Y-99800366D01*
X182762631Y-99800366D02*
X182762631Y-99371794D01*
X182762631Y-99371794D02*
X182691203Y-99228937D01*
X182691203Y-99228937D02*
X182619774Y-99157509D01*
X182619774Y-99157509D02*
X182476917Y-99086080D01*
X182476917Y-99086080D02*
X182262631Y-99086080D01*
X182262631Y-99086080D02*
X182119774Y-99157509D01*
X182119774Y-99157509D02*
X182048346Y-99228937D01*
X182048346Y-99228937D02*
X181976917Y-99371794D01*
X181976917Y-99371794D02*
X181976917Y-99800366D01*
X181976917Y-99800366D02*
X182048346Y-99943223D01*
X182048346Y-99943223D02*
X182119774Y-100014652D01*
X182119774Y-100014652D02*
X182262631Y-100086080D01*
X182262631Y-100086080D02*
X182476917Y-100086080D01*
X181476917Y-99086080D02*
X181191203Y-100086080D01*
X181191203Y-100086080D02*
X180905488Y-99371794D01*
X180905488Y-99371794D02*
X180619774Y-100086080D01*
X180619774Y-100086080D02*
X180334060Y-99086080D01*
X179191202Y-100014652D02*
X179334059Y-100086080D01*
X179334059Y-100086080D02*
X179619774Y-100086080D01*
X179619774Y-100086080D02*
X179762631Y-100014652D01*
X179762631Y-100014652D02*
X179834059Y-99871794D01*
X179834059Y-99871794D02*
X179834059Y-99300366D01*
X179834059Y-99300366D02*
X179762631Y-99157509D01*
X179762631Y-99157509D02*
X179619774Y-99086080D01*
X179619774Y-99086080D02*
X179334059Y-99086080D01*
X179334059Y-99086080D02*
X179191202Y-99157509D01*
X179191202Y-99157509D02*
X179119774Y-99300366D01*
X179119774Y-99300366D02*
X179119774Y-99443223D01*
X179119774Y-99443223D02*
X179834059Y-99586080D01*
X178476917Y-100086080D02*
X178476917Y-99086080D01*
X178476917Y-99371794D02*
X178405488Y-99228937D01*
X178405488Y-99228937D02*
X178334060Y-99157509D01*
X178334060Y-99157509D02*
X178191202Y-99086080D01*
X178191202Y-99086080D02*
X178048345Y-99086080D01*
X175762632Y-100086080D02*
X175762632Y-99300366D01*
X175762632Y-99300366D02*
X175834060Y-99157509D01*
X175834060Y-99157509D02*
X175976917Y-99086080D01*
X175976917Y-99086080D02*
X176262632Y-99086080D01*
X176262632Y-99086080D02*
X176405489Y-99157509D01*
X175762632Y-100014652D02*
X175905489Y-100086080D01*
X175905489Y-100086080D02*
X176262632Y-100086080D01*
X176262632Y-100086080D02*
X176405489Y-100014652D01*
X176405489Y-100014652D02*
X176476917Y-99871794D01*
X176476917Y-99871794D02*
X176476917Y-99728937D01*
X176476917Y-99728937D02*
X176405489Y-99586080D01*
X176405489Y-99586080D02*
X176262632Y-99514652D01*
X176262632Y-99514652D02*
X175905489Y-99514652D01*
X175905489Y-99514652D02*
X175762632Y-99443223D01*
X175048346Y-99086080D02*
X175048346Y-100086080D01*
X175048346Y-99228937D02*
X174976917Y-99157509D01*
X174976917Y-99157509D02*
X174834060Y-99086080D01*
X174834060Y-99086080D02*
X174619774Y-99086080D01*
X174619774Y-99086080D02*
X174476917Y-99157509D01*
X174476917Y-99157509D02*
X174405489Y-99300366D01*
X174405489Y-99300366D02*
X174405489Y-100086080D01*
X173048346Y-100086080D02*
X173048346Y-98586080D01*
X173048346Y-100014652D02*
X173191203Y-100086080D01*
X173191203Y-100086080D02*
X173476917Y-100086080D01*
X173476917Y-100086080D02*
X173619774Y-100014652D01*
X173619774Y-100014652D02*
X173691203Y-99943223D01*
X173691203Y-99943223D02*
X173762631Y-99800366D01*
X173762631Y-99800366D02*
X173762631Y-99371794D01*
X173762631Y-99371794D02*
X173691203Y-99228937D01*
X173691203Y-99228937D02*
X173619774Y-99157509D01*
X173619774Y-99157509D02*
X173476917Y-99086080D01*
X173476917Y-99086080D02*
X173191203Y-99086080D01*
X173191203Y-99086080D02*
X173048346Y-99157509D01*
X170334060Y-99943223D02*
X170405488Y-100014652D01*
X170405488Y-100014652D02*
X170619774Y-100086080D01*
X170619774Y-100086080D02*
X170762631Y-100086080D01*
X170762631Y-100086080D02*
X170976917Y-100014652D01*
X170976917Y-100014652D02*
X171119774Y-99871794D01*
X171119774Y-99871794D02*
X171191203Y-99728937D01*
X171191203Y-99728937D02*
X171262631Y-99443223D01*
X171262631Y-99443223D02*
X171262631Y-99228937D01*
X171262631Y-99228937D02*
X171191203Y-98943223D01*
X171191203Y-98943223D02*
X171119774Y-98800366D01*
X171119774Y-98800366D02*
X170976917Y-98657509D01*
X170976917Y-98657509D02*
X170762631Y-98586080D01*
X170762631Y-98586080D02*
X170619774Y-98586080D01*
X170619774Y-98586080D02*
X170405488Y-98657509D01*
X170405488Y-98657509D02*
X170334060Y-98728937D01*
X169476917Y-100086080D02*
X169619774Y-100014652D01*
X169619774Y-100014652D02*
X169691203Y-99943223D01*
X169691203Y-99943223D02*
X169762631Y-99800366D01*
X169762631Y-99800366D02*
X169762631Y-99371794D01*
X169762631Y-99371794D02*
X169691203Y-99228937D01*
X169691203Y-99228937D02*
X169619774Y-99157509D01*
X169619774Y-99157509D02*
X169476917Y-99086080D01*
X169476917Y-99086080D02*
X169262631Y-99086080D01*
X169262631Y-99086080D02*
X169119774Y-99157509D01*
X169119774Y-99157509D02*
X169048346Y-99228937D01*
X169048346Y-99228937D02*
X168976917Y-99371794D01*
X168976917Y-99371794D02*
X168976917Y-99800366D01*
X168976917Y-99800366D02*
X169048346Y-99943223D01*
X169048346Y-99943223D02*
X169119774Y-100014652D01*
X169119774Y-100014652D02*
X169262631Y-100086080D01*
X169262631Y-100086080D02*
X169476917Y-100086080D01*
X168334060Y-99086080D02*
X168334060Y-100086080D01*
X168334060Y-99228937D02*
X168262631Y-99157509D01*
X168262631Y-99157509D02*
X168119774Y-99086080D01*
X168119774Y-99086080D02*
X167905488Y-99086080D01*
X167905488Y-99086080D02*
X167762631Y-99157509D01*
X167762631Y-99157509D02*
X167691203Y-99300366D01*
X167691203Y-99300366D02*
X167691203Y-100086080D01*
X167191202Y-99086080D02*
X166619774Y-99086080D01*
X166976917Y-98586080D02*
X166976917Y-99871794D01*
X166976917Y-99871794D02*
X166905488Y-100014652D01*
X166905488Y-100014652D02*
X166762631Y-100086080D01*
X166762631Y-100086080D02*
X166619774Y-100086080D01*
X166119774Y-100086080D02*
X166119774Y-99086080D01*
X166119774Y-99371794D02*
X166048345Y-99228937D01*
X166048345Y-99228937D02*
X165976917Y-99157509D01*
X165976917Y-99157509D02*
X165834059Y-99086080D01*
X165834059Y-99086080D02*
X165691202Y-99086080D01*
X164976917Y-100086080D02*
X165119774Y-100014652D01*
X165119774Y-100014652D02*
X165191203Y-99943223D01*
X165191203Y-99943223D02*
X165262631Y-99800366D01*
X165262631Y-99800366D02*
X165262631Y-99371794D01*
X165262631Y-99371794D02*
X165191203Y-99228937D01*
X165191203Y-99228937D02*
X165119774Y-99157509D01*
X165119774Y-99157509D02*
X164976917Y-99086080D01*
X164976917Y-99086080D02*
X164762631Y-99086080D01*
X164762631Y-99086080D02*
X164619774Y-99157509D01*
X164619774Y-99157509D02*
X164548346Y-99228937D01*
X164548346Y-99228937D02*
X164476917Y-99371794D01*
X164476917Y-99371794D02*
X164476917Y-99800366D01*
X164476917Y-99800366D02*
X164548346Y-99943223D01*
X164548346Y-99943223D02*
X164619774Y-100014652D01*
X164619774Y-100014652D02*
X164762631Y-100086080D01*
X164762631Y-100086080D02*
X164976917Y-100086080D01*
X163619774Y-100086080D02*
X163762631Y-100014652D01*
X163762631Y-100014652D02*
X163834060Y-99871794D01*
X163834060Y-99871794D02*
X163834060Y-98586080D01*
X161905489Y-100086080D02*
X161905489Y-98586080D01*
X161905489Y-98586080D02*
X161405489Y-99657509D01*
X161405489Y-99657509D02*
X160905489Y-98586080D01*
X160905489Y-98586080D02*
X160905489Y-100086080D01*
X159976917Y-100086080D02*
X160119774Y-100014652D01*
X160119774Y-100014652D02*
X160191203Y-99943223D01*
X160191203Y-99943223D02*
X160262631Y-99800366D01*
X160262631Y-99800366D02*
X160262631Y-99371794D01*
X160262631Y-99371794D02*
X160191203Y-99228937D01*
X160191203Y-99228937D02*
X160119774Y-99157509D01*
X160119774Y-99157509D02*
X159976917Y-99086080D01*
X159976917Y-99086080D02*
X159762631Y-99086080D01*
X159762631Y-99086080D02*
X159619774Y-99157509D01*
X159619774Y-99157509D02*
X159548346Y-99228937D01*
X159548346Y-99228937D02*
X159476917Y-99371794D01*
X159476917Y-99371794D02*
X159476917Y-99800366D01*
X159476917Y-99800366D02*
X159548346Y-99943223D01*
X159548346Y-99943223D02*
X159619774Y-100014652D01*
X159619774Y-100014652D02*
X159762631Y-100086080D01*
X159762631Y-100086080D02*
X159976917Y-100086080D01*
X158191203Y-100086080D02*
X158191203Y-98586080D01*
X158191203Y-100014652D02*
X158334060Y-100086080D01*
X158334060Y-100086080D02*
X158619774Y-100086080D01*
X158619774Y-100086080D02*
X158762631Y-100014652D01*
X158762631Y-100014652D02*
X158834060Y-99943223D01*
X158834060Y-99943223D02*
X158905488Y-99800366D01*
X158905488Y-99800366D02*
X158905488Y-99371794D01*
X158905488Y-99371794D02*
X158834060Y-99228937D01*
X158834060Y-99228937D02*
X158762631Y-99157509D01*
X158762631Y-99157509D02*
X158619774Y-99086080D01*
X158619774Y-99086080D02*
X158334060Y-99086080D01*
X158334060Y-99086080D02*
X158191203Y-99157509D01*
X156834060Y-99086080D02*
X156834060Y-100086080D01*
X157476917Y-99086080D02*
X157476917Y-99871794D01*
X157476917Y-99871794D02*
X157405488Y-100014652D01*
X157405488Y-100014652D02*
X157262631Y-100086080D01*
X157262631Y-100086080D02*
X157048345Y-100086080D01*
X157048345Y-100086080D02*
X156905488Y-100014652D01*
X156905488Y-100014652D02*
X156834060Y-99943223D01*
X155905488Y-100086080D02*
X156048345Y-100014652D01*
X156048345Y-100014652D02*
X156119774Y-99871794D01*
X156119774Y-99871794D02*
X156119774Y-98586080D01*
X154762631Y-100014652D02*
X154905488Y-100086080D01*
X154905488Y-100086080D02*
X155191203Y-100086080D01*
X155191203Y-100086080D02*
X155334060Y-100014652D01*
X155334060Y-100014652D02*
X155405488Y-99871794D01*
X155405488Y-99871794D02*
X155405488Y-99300366D01*
X155405488Y-99300366D02*
X155334060Y-99157509D01*
X155334060Y-99157509D02*
X155191203Y-99086080D01*
X155191203Y-99086080D02*
X154905488Y-99086080D01*
X154905488Y-99086080D02*
X154762631Y-99157509D01*
X154762631Y-99157509D02*
X154691203Y-99300366D01*
X154691203Y-99300366D02*
X154691203Y-99443223D01*
X154691203Y-99443223D02*
X155405488Y-99586080D01*
X152476917Y-100657509D02*
X152548346Y-100586080D01*
X152548346Y-100586080D02*
X152691203Y-100371794D01*
X152691203Y-100371794D02*
X152762632Y-100228937D01*
X152762632Y-100228937D02*
X152834060Y-100014652D01*
X152834060Y-100014652D02*
X152905489Y-99657509D01*
X152905489Y-99657509D02*
X152905489Y-99371794D01*
X152905489Y-99371794D02*
X152834060Y-99014652D01*
X152834060Y-99014652D02*
X152762632Y-98800366D01*
X152762632Y-98800366D02*
X152691203Y-98657509D01*
X152691203Y-98657509D02*
X152548346Y-98443223D01*
X152548346Y-98443223D02*
X152476917Y-98371794D01*
X151048346Y-100086080D02*
X151548346Y-99371794D01*
X151905489Y-100086080D02*
X151905489Y-98586080D01*
X151905489Y-98586080D02*
X151334060Y-98586080D01*
X151334060Y-98586080D02*
X151191203Y-98657509D01*
X151191203Y-98657509D02*
X151119774Y-98728937D01*
X151119774Y-98728937D02*
X151048346Y-98871794D01*
X151048346Y-98871794D02*
X151048346Y-99086080D01*
X151048346Y-99086080D02*
X151119774Y-99228937D01*
X151119774Y-99228937D02*
X151191203Y-99300366D01*
X151191203Y-99300366D02*
X151334060Y-99371794D01*
X151334060Y-99371794D02*
X151905489Y-99371794D01*
X149834060Y-100014652D02*
X149976917Y-100086080D01*
X149976917Y-100086080D02*
X150262632Y-100086080D01*
X150262632Y-100086080D02*
X150405489Y-100014652D01*
X150405489Y-100014652D02*
X150476917Y-99871794D01*
X150476917Y-99871794D02*
X150476917Y-99300366D01*
X150476917Y-99300366D02*
X150405489Y-99157509D01*
X150405489Y-99157509D02*
X150262632Y-99086080D01*
X150262632Y-99086080D02*
X149976917Y-99086080D01*
X149976917Y-99086080D02*
X149834060Y-99157509D01*
X149834060Y-99157509D02*
X149762632Y-99300366D01*
X149762632Y-99300366D02*
X149762632Y-99443223D01*
X149762632Y-99443223D02*
X150476917Y-99586080D01*
X149262632Y-99086080D02*
X148905489Y-100086080D01*
X148905489Y-100086080D02*
X148548346Y-99086080D01*
X146905489Y-99657509D02*
X146191204Y-99657509D01*
X147048346Y-100086080D02*
X146548346Y-98586080D01*
X146548346Y-98586080D02*
X146048346Y-100086080D01*
X145691204Y-100657509D02*
X145619775Y-100586080D01*
X145619775Y-100586080D02*
X145476918Y-100371794D01*
X145476918Y-100371794D02*
X145405490Y-100228937D01*
X145405490Y-100228937D02*
X145334061Y-100014652D01*
X145334061Y-100014652D02*
X145262632Y-99657509D01*
X145262632Y-99657509D02*
X145262632Y-99371794D01*
X145262632Y-99371794D02*
X145334061Y-99014652D01*
X145334061Y-99014652D02*
X145405490Y-98800366D01*
X145405490Y-98800366D02*
X145476918Y-98657509D01*
X145476918Y-98657509D02*
X145619775Y-98443223D01*
X145619775Y-98443223D02*
X145691204Y-98371794D01*
X189405489Y-101715282D02*
X189191203Y-101786710D01*
X189191203Y-101786710D02*
X189119774Y-101858139D01*
X189119774Y-101858139D02*
X189048346Y-102000996D01*
X189048346Y-102000996D02*
X189048346Y-102215282D01*
X189048346Y-102215282D02*
X189119774Y-102358139D01*
X189119774Y-102358139D02*
X189191203Y-102429568D01*
X189191203Y-102429568D02*
X189334060Y-102500996D01*
X189334060Y-102500996D02*
X189905489Y-102500996D01*
X189905489Y-102500996D02*
X189905489Y-101000996D01*
X189905489Y-101000996D02*
X189405489Y-101000996D01*
X189405489Y-101000996D02*
X189262632Y-101072425D01*
X189262632Y-101072425D02*
X189191203Y-101143853D01*
X189191203Y-101143853D02*
X189119774Y-101286710D01*
X189119774Y-101286710D02*
X189119774Y-101429568D01*
X189119774Y-101429568D02*
X189191203Y-101572425D01*
X189191203Y-101572425D02*
X189262632Y-101643853D01*
X189262632Y-101643853D02*
X189405489Y-101715282D01*
X189405489Y-101715282D02*
X189905489Y-101715282D01*
X188191203Y-102500996D02*
X188334060Y-102429568D01*
X188334060Y-102429568D02*
X188405489Y-102286710D01*
X188405489Y-102286710D02*
X188405489Y-101000996D01*
X186976918Y-102500996D02*
X186976918Y-101715282D01*
X186976918Y-101715282D02*
X187048346Y-101572425D01*
X187048346Y-101572425D02*
X187191203Y-101500996D01*
X187191203Y-101500996D02*
X187476918Y-101500996D01*
X187476918Y-101500996D02*
X187619775Y-101572425D01*
X186976918Y-102429568D02*
X187119775Y-102500996D01*
X187119775Y-102500996D02*
X187476918Y-102500996D01*
X187476918Y-102500996D02*
X187619775Y-102429568D01*
X187619775Y-102429568D02*
X187691203Y-102286710D01*
X187691203Y-102286710D02*
X187691203Y-102143853D01*
X187691203Y-102143853D02*
X187619775Y-102000996D01*
X187619775Y-102000996D02*
X187476918Y-101929568D01*
X187476918Y-101929568D02*
X187119775Y-101929568D01*
X187119775Y-101929568D02*
X186976918Y-101858139D01*
X186262632Y-102500996D02*
X186262632Y-101500996D01*
X186262632Y-101000996D02*
X186334060Y-101072425D01*
X186334060Y-101072425D02*
X186262632Y-101143853D01*
X186262632Y-101143853D02*
X186191203Y-101072425D01*
X186191203Y-101072425D02*
X186262632Y-101000996D01*
X186262632Y-101000996D02*
X186262632Y-101143853D01*
X185548346Y-102500996D02*
X185548346Y-101500996D01*
X185548346Y-101786710D02*
X185476917Y-101643853D01*
X185476917Y-101643853D02*
X185405489Y-101572425D01*
X185405489Y-101572425D02*
X185262631Y-101500996D01*
X185262631Y-101500996D02*
X185119774Y-101500996D01*
X183048346Y-101000996D02*
X183048346Y-102072425D01*
X183048346Y-102072425D02*
X183119775Y-102286710D01*
X183119775Y-102286710D02*
X183262632Y-102429568D01*
X183262632Y-102429568D02*
X183476918Y-102500996D01*
X183476918Y-102500996D02*
X183619775Y-102500996D01*
X181691204Y-102500996D02*
X181691204Y-101715282D01*
X181691204Y-101715282D02*
X181762632Y-101572425D01*
X181762632Y-101572425D02*
X181905489Y-101500996D01*
X181905489Y-101500996D02*
X182191204Y-101500996D01*
X182191204Y-101500996D02*
X182334061Y-101572425D01*
X181691204Y-102429568D02*
X181834061Y-102500996D01*
X181834061Y-102500996D02*
X182191204Y-102500996D01*
X182191204Y-102500996D02*
X182334061Y-102429568D01*
X182334061Y-102429568D02*
X182405489Y-102286710D01*
X182405489Y-102286710D02*
X182405489Y-102143853D01*
X182405489Y-102143853D02*
X182334061Y-102000996D01*
X182334061Y-102000996D02*
X182191204Y-101929568D01*
X182191204Y-101929568D02*
X181834061Y-101929568D01*
X181834061Y-101929568D02*
X181691204Y-101858139D01*
X180976918Y-102500996D02*
X180976918Y-101500996D01*
X180976918Y-101643853D02*
X180905489Y-101572425D01*
X180905489Y-101572425D02*
X180762632Y-101500996D01*
X180762632Y-101500996D02*
X180548346Y-101500996D01*
X180548346Y-101500996D02*
X180405489Y-101572425D01*
X180405489Y-101572425D02*
X180334061Y-101715282D01*
X180334061Y-101715282D02*
X180334061Y-102500996D01*
X180334061Y-101715282D02*
X180262632Y-101572425D01*
X180262632Y-101572425D02*
X180119775Y-101500996D01*
X180119775Y-101500996D02*
X179905489Y-101500996D01*
X179905489Y-101500996D02*
X179762632Y-101572425D01*
X179762632Y-101572425D02*
X179691203Y-101715282D01*
X179691203Y-101715282D02*
X179691203Y-102500996D01*
X178976918Y-102500996D02*
X178976918Y-101500996D01*
X178976918Y-101000996D02*
X179048346Y-101072425D01*
X179048346Y-101072425D02*
X178976918Y-101143853D01*
X178976918Y-101143853D02*
X178905489Y-101072425D01*
X178905489Y-101072425D02*
X178976918Y-101000996D01*
X178976918Y-101000996D02*
X178976918Y-101143853D01*
X177691203Y-102429568D02*
X177834060Y-102500996D01*
X177834060Y-102500996D02*
X178119775Y-102500996D01*
X178119775Y-102500996D02*
X178262632Y-102429568D01*
X178262632Y-102429568D02*
X178334060Y-102286710D01*
X178334060Y-102286710D02*
X178334060Y-101715282D01*
X178334060Y-101715282D02*
X178262632Y-101572425D01*
X178262632Y-101572425D02*
X178119775Y-101500996D01*
X178119775Y-101500996D02*
X177834060Y-101500996D01*
X177834060Y-101500996D02*
X177691203Y-101572425D01*
X177691203Y-101572425D02*
X177619775Y-101715282D01*
X177619775Y-101715282D02*
X177619775Y-101858139D01*
X177619775Y-101858139D02*
X178334060Y-102000996D01*
X177048346Y-102429568D02*
X176905489Y-102500996D01*
X176905489Y-102500996D02*
X176619775Y-102500996D01*
X176619775Y-102500996D02*
X176476918Y-102429568D01*
X176476918Y-102429568D02*
X176405489Y-102286710D01*
X176405489Y-102286710D02*
X176405489Y-102215282D01*
X176405489Y-102215282D02*
X176476918Y-102072425D01*
X176476918Y-102072425D02*
X176619775Y-102000996D01*
X176619775Y-102000996D02*
X176834061Y-102000996D01*
X176834061Y-102000996D02*
X176976918Y-101929568D01*
X176976918Y-101929568D02*
X177048346Y-101786710D01*
X177048346Y-101786710D02*
X177048346Y-101715282D01*
X177048346Y-101715282D02*
X176976918Y-101572425D01*
X176976918Y-101572425D02*
X176834061Y-101500996D01*
X176834061Y-101500996D02*
X176619775Y-101500996D01*
X176619775Y-101500996D02*
X176476918Y-101572425D01*
X175548346Y-102500996D02*
X175691203Y-102429568D01*
X175691203Y-102429568D02*
X175762632Y-102358139D01*
X175762632Y-102358139D02*
X175834060Y-102215282D01*
X175834060Y-102215282D02*
X175834060Y-101786710D01*
X175834060Y-101786710D02*
X175762632Y-101643853D01*
X175762632Y-101643853D02*
X175691203Y-101572425D01*
X175691203Y-101572425D02*
X175548346Y-101500996D01*
X175548346Y-101500996D02*
X175334060Y-101500996D01*
X175334060Y-101500996D02*
X175191203Y-101572425D01*
X175191203Y-101572425D02*
X175119775Y-101643853D01*
X175119775Y-101643853D02*
X175048346Y-101786710D01*
X175048346Y-101786710D02*
X175048346Y-102215282D01*
X175048346Y-102215282D02*
X175119775Y-102358139D01*
X175119775Y-102358139D02*
X175191203Y-102429568D01*
X175191203Y-102429568D02*
X175334060Y-102500996D01*
X175334060Y-102500996D02*
X175548346Y-102500996D01*
X174405489Y-101500996D02*
X174405489Y-102500996D01*
X174405489Y-101643853D02*
X174334060Y-101572425D01*
X174334060Y-101572425D02*
X174191203Y-101500996D01*
X174191203Y-101500996D02*
X173976917Y-101500996D01*
X173976917Y-101500996D02*
X173834060Y-101572425D01*
X173834060Y-101572425D02*
X173762632Y-101715282D01*
X173762632Y-101715282D02*
X173762632Y-102500996D01*
X189905489Y-103415912D02*
X189905489Y-104630198D01*
X189905489Y-104630198D02*
X189834060Y-104773055D01*
X189834060Y-104773055D02*
X189762632Y-104844484D01*
X189762632Y-104844484D02*
X189619774Y-104915912D01*
X189619774Y-104915912D02*
X189334060Y-104915912D01*
X189334060Y-104915912D02*
X189191203Y-104844484D01*
X189191203Y-104844484D02*
X189119774Y-104773055D01*
X189119774Y-104773055D02*
X189048346Y-104630198D01*
X189048346Y-104630198D02*
X189048346Y-103415912D01*
X188334060Y-103915912D02*
X188334060Y-104915912D01*
X188334060Y-104058769D02*
X188262631Y-103987341D01*
X188262631Y-103987341D02*
X188119774Y-103915912D01*
X188119774Y-103915912D02*
X187905488Y-103915912D01*
X187905488Y-103915912D02*
X187762631Y-103987341D01*
X187762631Y-103987341D02*
X187691203Y-104130198D01*
X187691203Y-104130198D02*
X187691203Y-104915912D01*
X186976917Y-104915912D02*
X186976917Y-103915912D01*
X186976917Y-103415912D02*
X187048345Y-103487341D01*
X187048345Y-103487341D02*
X186976917Y-103558769D01*
X186976917Y-103558769D02*
X186905488Y-103487341D01*
X186905488Y-103487341D02*
X186976917Y-103415912D01*
X186976917Y-103415912D02*
X186976917Y-103558769D01*
X186405488Y-103915912D02*
X186048345Y-104915912D01*
X186048345Y-104915912D02*
X185691202Y-103915912D01*
X184548345Y-104844484D02*
X184691202Y-104915912D01*
X184691202Y-104915912D02*
X184976917Y-104915912D01*
X184976917Y-104915912D02*
X185119774Y-104844484D01*
X185119774Y-104844484D02*
X185191202Y-104701626D01*
X185191202Y-104701626D02*
X185191202Y-104130198D01*
X185191202Y-104130198D02*
X185119774Y-103987341D01*
X185119774Y-103987341D02*
X184976917Y-103915912D01*
X184976917Y-103915912D02*
X184691202Y-103915912D01*
X184691202Y-103915912D02*
X184548345Y-103987341D01*
X184548345Y-103987341D02*
X184476917Y-104130198D01*
X184476917Y-104130198D02*
X184476917Y-104273055D01*
X184476917Y-104273055D02*
X185191202Y-104415912D01*
X183834060Y-104915912D02*
X183834060Y-103915912D01*
X183834060Y-104201626D02*
X183762631Y-104058769D01*
X183762631Y-104058769D02*
X183691203Y-103987341D01*
X183691203Y-103987341D02*
X183548345Y-103915912D01*
X183548345Y-103915912D02*
X183405488Y-103915912D01*
X182976917Y-104844484D02*
X182834060Y-104915912D01*
X182834060Y-104915912D02*
X182548346Y-104915912D01*
X182548346Y-104915912D02*
X182405489Y-104844484D01*
X182405489Y-104844484D02*
X182334060Y-104701626D01*
X182334060Y-104701626D02*
X182334060Y-104630198D01*
X182334060Y-104630198D02*
X182405489Y-104487341D01*
X182405489Y-104487341D02*
X182548346Y-104415912D01*
X182548346Y-104415912D02*
X182762632Y-104415912D01*
X182762632Y-104415912D02*
X182905489Y-104344484D01*
X182905489Y-104344484D02*
X182976917Y-104201626D01*
X182976917Y-104201626D02*
X182976917Y-104130198D01*
X182976917Y-104130198D02*
X182905489Y-103987341D01*
X182905489Y-103987341D02*
X182762632Y-103915912D01*
X182762632Y-103915912D02*
X182548346Y-103915912D01*
X182548346Y-103915912D02*
X182405489Y-103987341D01*
X181691203Y-104915912D02*
X181691203Y-103915912D01*
X181691203Y-103415912D02*
X181762631Y-103487341D01*
X181762631Y-103487341D02*
X181691203Y-103558769D01*
X181691203Y-103558769D02*
X181619774Y-103487341D01*
X181619774Y-103487341D02*
X181691203Y-103415912D01*
X181691203Y-103415912D02*
X181691203Y-103558769D01*
X181191202Y-103915912D02*
X180619774Y-103915912D01*
X180976917Y-103415912D02*
X180976917Y-104701626D01*
X180976917Y-104701626D02*
X180905488Y-104844484D01*
X180905488Y-104844484D02*
X180762631Y-104915912D01*
X180762631Y-104915912D02*
X180619774Y-104915912D01*
X180262631Y-103915912D02*
X179905488Y-104915912D01*
X179548345Y-103915912D02*
X179905488Y-104915912D01*
X179905488Y-104915912D02*
X180048345Y-105273055D01*
X180048345Y-105273055D02*
X180119774Y-105344484D01*
X180119774Y-105344484D02*
X180262631Y-105415912D01*
X177619774Y-104915912D02*
X177762631Y-104844484D01*
X177762631Y-104844484D02*
X177834060Y-104773055D01*
X177834060Y-104773055D02*
X177905488Y-104630198D01*
X177905488Y-104630198D02*
X177905488Y-104201626D01*
X177905488Y-104201626D02*
X177834060Y-104058769D01*
X177834060Y-104058769D02*
X177762631Y-103987341D01*
X177762631Y-103987341D02*
X177619774Y-103915912D01*
X177619774Y-103915912D02*
X177405488Y-103915912D01*
X177405488Y-103915912D02*
X177262631Y-103987341D01*
X177262631Y-103987341D02*
X177191203Y-104058769D01*
X177191203Y-104058769D02*
X177119774Y-104201626D01*
X177119774Y-104201626D02*
X177119774Y-104630198D01*
X177119774Y-104630198D02*
X177191203Y-104773055D01*
X177191203Y-104773055D02*
X177262631Y-104844484D01*
X177262631Y-104844484D02*
X177405488Y-104915912D01*
X177405488Y-104915912D02*
X177619774Y-104915912D01*
X176691202Y-103915912D02*
X176119774Y-103915912D01*
X176476917Y-104915912D02*
X176476917Y-103630198D01*
X176476917Y-103630198D02*
X176405488Y-103487341D01*
X176405488Y-103487341D02*
X176262631Y-103415912D01*
X176262631Y-103415912D02*
X176119774Y-103415912D01*
X174619774Y-103415912D02*
X174262631Y-104915912D01*
X174262631Y-104915912D02*
X173976917Y-103844484D01*
X173976917Y-103844484D02*
X173691202Y-104915912D01*
X173691202Y-104915912D02*
X173334060Y-103415912D01*
X172762631Y-104915912D02*
X172762631Y-103915912D01*
X172762631Y-103415912D02*
X172834059Y-103487341D01*
X172834059Y-103487341D02*
X172762631Y-103558769D01*
X172762631Y-103558769D02*
X172691202Y-103487341D01*
X172691202Y-103487341D02*
X172762631Y-103415912D01*
X172762631Y-103415912D02*
X172762631Y-103558769D01*
X172048345Y-103915912D02*
X172048345Y-104915912D01*
X172048345Y-104058769D02*
X171976916Y-103987341D01*
X171976916Y-103987341D02*
X171834059Y-103915912D01*
X171834059Y-103915912D02*
X171619773Y-103915912D01*
X171619773Y-103915912D02*
X171476916Y-103987341D01*
X171476916Y-103987341D02*
X171405488Y-104130198D01*
X171405488Y-104130198D02*
X171405488Y-104915912D01*
X170691202Y-103915912D02*
X170691202Y-104915912D01*
X170691202Y-104058769D02*
X170619773Y-103987341D01*
X170619773Y-103987341D02*
X170476916Y-103915912D01*
X170476916Y-103915912D02*
X170262630Y-103915912D01*
X170262630Y-103915912D02*
X170119773Y-103987341D01*
X170119773Y-103987341D02*
X170048345Y-104130198D01*
X170048345Y-104130198D02*
X170048345Y-104915912D01*
X169334059Y-104915912D02*
X169334059Y-103915912D01*
X169334059Y-103415912D02*
X169405487Y-103487341D01*
X169405487Y-103487341D02*
X169334059Y-103558769D01*
X169334059Y-103558769D02*
X169262630Y-103487341D01*
X169262630Y-103487341D02*
X169334059Y-103415912D01*
X169334059Y-103415912D02*
X169334059Y-103558769D01*
X168619773Y-103915912D02*
X168619773Y-105415912D01*
X168619773Y-103987341D02*
X168476916Y-103915912D01*
X168476916Y-103915912D02*
X168191201Y-103915912D01*
X168191201Y-103915912D02*
X168048344Y-103987341D01*
X168048344Y-103987341D02*
X167976916Y-104058769D01*
X167976916Y-104058769D02*
X167905487Y-104201626D01*
X167905487Y-104201626D02*
X167905487Y-104630198D01*
X167905487Y-104630198D02*
X167976916Y-104773055D01*
X167976916Y-104773055D02*
X168048344Y-104844484D01*
X168048344Y-104844484D02*
X168191201Y-104915912D01*
X168191201Y-104915912D02*
X168476916Y-104915912D01*
X168476916Y-104915912D02*
X168619773Y-104844484D01*
X166691201Y-104844484D02*
X166834058Y-104915912D01*
X166834058Y-104915912D02*
X167119773Y-104915912D01*
X167119773Y-104915912D02*
X167262630Y-104844484D01*
X167262630Y-104844484D02*
X167334058Y-104701626D01*
X167334058Y-104701626D02*
X167334058Y-104130198D01*
X167334058Y-104130198D02*
X167262630Y-103987341D01*
X167262630Y-103987341D02*
X167119773Y-103915912D01*
X167119773Y-103915912D02*
X166834058Y-103915912D01*
X166834058Y-103915912D02*
X166691201Y-103987341D01*
X166691201Y-103987341D02*
X166619773Y-104130198D01*
X166619773Y-104130198D02*
X166619773Y-104273055D01*
X166619773Y-104273055D02*
X167334058Y-104415912D01*
X165334059Y-103915912D02*
X165334059Y-105130198D01*
X165334059Y-105130198D02*
X165405487Y-105273055D01*
X165405487Y-105273055D02*
X165476916Y-105344484D01*
X165476916Y-105344484D02*
X165619773Y-105415912D01*
X165619773Y-105415912D02*
X165834059Y-105415912D01*
X165834059Y-105415912D02*
X165976916Y-105344484D01*
X165334059Y-104844484D02*
X165476916Y-104915912D01*
X165476916Y-104915912D02*
X165762630Y-104915912D01*
X165762630Y-104915912D02*
X165905487Y-104844484D01*
X165905487Y-104844484D02*
X165976916Y-104773055D01*
X165976916Y-104773055D02*
X166048344Y-104630198D01*
X166048344Y-104630198D02*
X166048344Y-104201626D01*
X166048344Y-104201626D02*
X165976916Y-104058769D01*
X165976916Y-104058769D02*
X165905487Y-103987341D01*
X165905487Y-103987341D02*
X165762630Y-103915912D01*
X165762630Y-103915912D02*
X165476916Y-103915912D01*
X165476916Y-103915912D02*
X165334059Y-103987341D01*
X189905489Y-107330828D02*
X189905489Y-105830828D01*
X189905489Y-105830828D02*
X189405489Y-106902257D01*
X189405489Y-106902257D02*
X188905489Y-105830828D01*
X188905489Y-105830828D02*
X188905489Y-107330828D01*
X187548346Y-107330828D02*
X187548346Y-106545114D01*
X187548346Y-106545114D02*
X187619774Y-106402257D01*
X187619774Y-106402257D02*
X187762631Y-106330828D01*
X187762631Y-106330828D02*
X188048346Y-106330828D01*
X188048346Y-106330828D02*
X188191203Y-106402257D01*
X187548346Y-107259400D02*
X187691203Y-107330828D01*
X187691203Y-107330828D02*
X188048346Y-107330828D01*
X188048346Y-107330828D02*
X188191203Y-107259400D01*
X188191203Y-107259400D02*
X188262631Y-107116542D01*
X188262631Y-107116542D02*
X188262631Y-106973685D01*
X188262631Y-106973685D02*
X188191203Y-106830828D01*
X188191203Y-106830828D02*
X188048346Y-106759400D01*
X188048346Y-106759400D02*
X187691203Y-106759400D01*
X187691203Y-106759400D02*
X187548346Y-106687971D01*
X186834060Y-107330828D02*
X186834060Y-106330828D01*
X186834060Y-106616542D02*
X186762631Y-106473685D01*
X186762631Y-106473685D02*
X186691203Y-106402257D01*
X186691203Y-106402257D02*
X186548345Y-106330828D01*
X186548345Y-106330828D02*
X186405488Y-106330828D01*
X184834060Y-105973685D02*
X184762632Y-105902257D01*
X184762632Y-105902257D02*
X184619775Y-105830828D01*
X184619775Y-105830828D02*
X184262632Y-105830828D01*
X184262632Y-105830828D02*
X184119775Y-105902257D01*
X184119775Y-105902257D02*
X184048346Y-105973685D01*
X184048346Y-105973685D02*
X183976917Y-106116542D01*
X183976917Y-106116542D02*
X183976917Y-106259400D01*
X183976917Y-106259400D02*
X184048346Y-106473685D01*
X184048346Y-106473685D02*
X184905489Y-107330828D01*
X184905489Y-107330828D02*
X183976917Y-107330828D01*
X183048346Y-105830828D02*
X182905489Y-105830828D01*
X182905489Y-105830828D02*
X182762632Y-105902257D01*
X182762632Y-105902257D02*
X182691204Y-105973685D01*
X182691204Y-105973685D02*
X182619775Y-106116542D01*
X182619775Y-106116542D02*
X182548346Y-106402257D01*
X182548346Y-106402257D02*
X182548346Y-106759400D01*
X182548346Y-106759400D02*
X182619775Y-107045114D01*
X182619775Y-107045114D02*
X182691204Y-107187971D01*
X182691204Y-107187971D02*
X182762632Y-107259400D01*
X182762632Y-107259400D02*
X182905489Y-107330828D01*
X182905489Y-107330828D02*
X183048346Y-107330828D01*
X183048346Y-107330828D02*
X183191204Y-107259400D01*
X183191204Y-107259400D02*
X183262632Y-107187971D01*
X183262632Y-107187971D02*
X183334061Y-107045114D01*
X183334061Y-107045114D02*
X183405489Y-106759400D01*
X183405489Y-106759400D02*
X183405489Y-106402257D01*
X183405489Y-106402257D02*
X183334061Y-106116542D01*
X183334061Y-106116542D02*
X183262632Y-105973685D01*
X183262632Y-105973685D02*
X183191204Y-105902257D01*
X183191204Y-105902257D02*
X183048346Y-105830828D01*
X181976918Y-105973685D02*
X181905490Y-105902257D01*
X181905490Y-105902257D02*
X181762633Y-105830828D01*
X181762633Y-105830828D02*
X181405490Y-105830828D01*
X181405490Y-105830828D02*
X181262633Y-105902257D01*
X181262633Y-105902257D02*
X181191204Y-105973685D01*
X181191204Y-105973685D02*
X181119775Y-106116542D01*
X181119775Y-106116542D02*
X181119775Y-106259400D01*
X181119775Y-106259400D02*
X181191204Y-106473685D01*
X181191204Y-106473685D02*
X182048347Y-107330828D01*
X182048347Y-107330828D02*
X181119775Y-107330828D01*
X179834062Y-105830828D02*
X180119776Y-105830828D01*
X180119776Y-105830828D02*
X180262633Y-105902257D01*
X180262633Y-105902257D02*
X180334062Y-105973685D01*
X180334062Y-105973685D02*
X180476919Y-106187971D01*
X180476919Y-106187971D02*
X180548347Y-106473685D01*
X180548347Y-106473685D02*
X180548347Y-107045114D01*
X180548347Y-107045114D02*
X180476919Y-107187971D01*
X180476919Y-107187971D02*
X180405490Y-107259400D01*
X180405490Y-107259400D02*
X180262633Y-107330828D01*
X180262633Y-107330828D02*
X179976919Y-107330828D01*
X179976919Y-107330828D02*
X179834062Y-107259400D01*
X179834062Y-107259400D02*
X179762633Y-107187971D01*
X179762633Y-107187971D02*
X179691204Y-107045114D01*
X179691204Y-107045114D02*
X179691204Y-106687971D01*
X179691204Y-106687971D02*
X179762633Y-106545114D01*
X179762633Y-106545114D02*
X179834062Y-106473685D01*
X179834062Y-106473685D02*
X179976919Y-106402257D01*
X179976919Y-106402257D02*
X180262633Y-106402257D01*
X180262633Y-106402257D02*
X180405490Y-106473685D01*
X180405490Y-106473685D02*
X180476919Y-106545114D01*
X180476919Y-106545114D02*
X180548347Y-106687971D01*
D11*
X101919047Y-76159580D02*
X101966666Y-76207200D01*
X101966666Y-76207200D02*
X102109523Y-76254819D01*
X102109523Y-76254819D02*
X102204761Y-76254819D01*
X102204761Y-76254819D02*
X102347618Y-76207200D01*
X102347618Y-76207200D02*
X102442856Y-76111961D01*
X102442856Y-76111961D02*
X102490475Y-76016723D01*
X102490475Y-76016723D02*
X102538094Y-75826247D01*
X102538094Y-75826247D02*
X102538094Y-75683390D01*
X102538094Y-75683390D02*
X102490475Y-75492914D01*
X102490475Y-75492914D02*
X102442856Y-75397676D01*
X102442856Y-75397676D02*
X102347618Y-75302438D01*
X102347618Y-75302438D02*
X102204761Y-75254819D01*
X102204761Y-75254819D02*
X102109523Y-75254819D01*
X102109523Y-75254819D02*
X101966666Y-75302438D01*
X101966666Y-75302438D02*
X101919047Y-75350057D01*
X100966666Y-76254819D02*
X101538094Y-76254819D01*
X101252380Y-76254819D02*
X101252380Y-75254819D01*
X101252380Y-75254819D02*
X101347618Y-75397676D01*
X101347618Y-75397676D02*
X101442856Y-75492914D01*
X101442856Y-75492914D02*
X101538094Y-75540533D01*
X100347618Y-75254819D02*
X100252380Y-75254819D01*
X100252380Y-75254819D02*
X100157142Y-75302438D01*
X100157142Y-75302438D02*
X100109523Y-75350057D01*
X100109523Y-75350057D02*
X100061904Y-75445295D01*
X100061904Y-75445295D02*
X100014285Y-75635771D01*
X100014285Y-75635771D02*
X100014285Y-75873866D01*
X100014285Y-75873866D02*
X100061904Y-76064342D01*
X100061904Y-76064342D02*
X100109523Y-76159580D01*
X100109523Y-76159580D02*
X100157142Y-76207200D01*
X100157142Y-76207200D02*
X100252380Y-76254819D01*
X100252380Y-76254819D02*
X100347618Y-76254819D01*
X100347618Y-76254819D02*
X100442856Y-76207200D01*
X100442856Y-76207200D02*
X100490475Y-76159580D01*
X100490475Y-76159580D02*
X100538094Y-76064342D01*
X100538094Y-76064342D02*
X100585713Y-75873866D01*
X100585713Y-75873866D02*
X100585713Y-75635771D01*
X100585713Y-75635771D02*
X100538094Y-75445295D01*
X100538094Y-75445295D02*
X100490475Y-75350057D01*
X100490475Y-75350057D02*
X100442856Y-75302438D01*
X100442856Y-75302438D02*
X100347618Y-75254819D01*
X99680951Y-75254819D02*
X99061904Y-75254819D01*
X99061904Y-75254819D02*
X99395237Y-75635771D01*
X99395237Y-75635771D02*
X99252380Y-75635771D01*
X99252380Y-75635771D02*
X99157142Y-75683390D01*
X99157142Y-75683390D02*
X99109523Y-75731009D01*
X99109523Y-75731009D02*
X99061904Y-75826247D01*
X99061904Y-75826247D02*
X99061904Y-76064342D01*
X99061904Y-76064342D02*
X99109523Y-76159580D01*
X99109523Y-76159580D02*
X99157142Y-76207200D01*
X99157142Y-76207200D02*
X99252380Y-76254819D01*
X99252380Y-76254819D02*
X99538094Y-76254819D01*
X99538094Y-76254819D02*
X99633332Y-76207200D01*
X99633332Y-76207200D02*
X99680951Y-76159580D01*
X117704819Y-117680952D02*
X117228628Y-117347619D01*
X117704819Y-117109524D02*
X116704819Y-117109524D01*
X116704819Y-117109524D02*
X116704819Y-117490476D01*
X116704819Y-117490476D02*
X116752438Y-117585714D01*
X116752438Y-117585714D02*
X116800057Y-117633333D01*
X116800057Y-117633333D02*
X116895295Y-117680952D01*
X116895295Y-117680952D02*
X117038152Y-117680952D01*
X117038152Y-117680952D02*
X117133390Y-117633333D01*
X117133390Y-117633333D02*
X117181009Y-117585714D01*
X117181009Y-117585714D02*
X117228628Y-117490476D01*
X117228628Y-117490476D02*
X117228628Y-117109524D01*
X117704819Y-118633333D02*
X117704819Y-118061905D01*
X117704819Y-118347619D02*
X116704819Y-118347619D01*
X116704819Y-118347619D02*
X116847676Y-118252381D01*
X116847676Y-118252381D02*
X116942914Y-118157143D01*
X116942914Y-118157143D02*
X116990533Y-118061905D01*
X116704819Y-119252381D02*
X116704819Y-119347619D01*
X116704819Y-119347619D02*
X116752438Y-119442857D01*
X116752438Y-119442857D02*
X116800057Y-119490476D01*
X116800057Y-119490476D02*
X116895295Y-119538095D01*
X116895295Y-119538095D02*
X117085771Y-119585714D01*
X117085771Y-119585714D02*
X117323866Y-119585714D01*
X117323866Y-119585714D02*
X117514342Y-119538095D01*
X117514342Y-119538095D02*
X117609580Y-119490476D01*
X117609580Y-119490476D02*
X117657200Y-119442857D01*
X117657200Y-119442857D02*
X117704819Y-119347619D01*
X117704819Y-119347619D02*
X117704819Y-119252381D01*
X117704819Y-119252381D02*
X117657200Y-119157143D01*
X117657200Y-119157143D02*
X117609580Y-119109524D01*
X117609580Y-119109524D02*
X117514342Y-119061905D01*
X117514342Y-119061905D02*
X117323866Y-119014286D01*
X117323866Y-119014286D02*
X117085771Y-119014286D01*
X117085771Y-119014286D02*
X116895295Y-119061905D01*
X116895295Y-119061905D02*
X116800057Y-119109524D01*
X116800057Y-119109524D02*
X116752438Y-119157143D01*
X116752438Y-119157143D02*
X116704819Y-119252381D01*
X116800057Y-119966667D02*
X116752438Y-120014286D01*
X116752438Y-120014286D02*
X116704819Y-120109524D01*
X116704819Y-120109524D02*
X116704819Y-120347619D01*
X116704819Y-120347619D02*
X116752438Y-120442857D01*
X116752438Y-120442857D02*
X116800057Y-120490476D01*
X116800057Y-120490476D02*
X116895295Y-120538095D01*
X116895295Y-120538095D02*
X116990533Y-120538095D01*
X116990533Y-120538095D02*
X117133390Y-120490476D01*
X117133390Y-120490476D02*
X117704819Y-119919048D01*
X117704819Y-119919048D02*
X117704819Y-120538095D01*
D12*
%TO.C,J103*%
X164525001Y-119710942D02*
G75*
G02*
X163763001Y-119710942I-381000J0D01*
G01*
X163763001Y-119710942D02*
G75*
G02*
X164525001Y-119710942I381000J0D01*
G01*
%TO.C,J102*%
X181685000Y-119760942D02*
G75*
G02*
X180923000Y-119760942I-381000J0D01*
G01*
X180923000Y-119760942D02*
G75*
G02*
X181685000Y-119760942I381000J0D01*
G01*
%TD*%
%LPC*%
D13*
%TO.C,J101*%
X119115600Y-69214250D02*
G75*
G02*
X117584400Y-69214250I-765600J0D01*
G01*
X117584400Y-69214250D02*
G75*
G02*
X119115600Y-69214250I765600J0D01*
G01*
D14*
X123918100Y-73534250D02*
G75*
G02*
X123081900Y-73534250I-418100J0D01*
G01*
X123081900Y-73534250D02*
G75*
G02*
X123918100Y-73534250I418100J0D01*
G01*
X126918100Y-73534250D02*
G75*
G02*
X126081900Y-73534250I-418100J0D01*
G01*
X126081900Y-73534250D02*
G75*
G02*
X126918100Y-73534250I418100J0D01*
G01*
X129918100Y-73534250D02*
G75*
G02*
X129081900Y-73534250I-418100J0D01*
G01*
X129081900Y-73534250D02*
G75*
G02*
X129918100Y-73534250I418100J0D01*
G01*
D13*
X132415600Y-69214250D02*
G75*
G02*
X130884400Y-69214250I-765600J0D01*
G01*
X130884400Y-69214250D02*
G75*
G02*
X132415600Y-69214250I765600J0D01*
G01*
D15*
X121336200Y-74370450D02*
X119663800Y-74370450D01*
X119663800Y-72698050D01*
X121336200Y-72698050D01*
X121336200Y-74370450D01*
G36*
X121336200Y-74370450D02*
G01*
X119663800Y-74370450D01*
X119663800Y-72698050D01*
X121336200Y-72698050D01*
X121336200Y-74370450D01*
G37*
%TD*%
D16*
%TO.C,PS301*%
X117460000Y-80050000D03*
D17*
X109840000Y-80050000D03*
X102220000Y-80050000D03*
X102220000Y-107990000D03*
X106030000Y-107990000D03*
X109840000Y-107990000D03*
X113650000Y-107990000D03*
X117460000Y-107990000D03*
%TD*%
D18*
%TO.C,H102*%
X204500000Y-64300000D03*
%TD*%
D19*
%TO.C,PS401*%
X112000000Y-85100000D03*
D20*
X104400000Y-85100000D03*
X96800000Y-85100000D03*
D21*
X96800000Y-113000000D03*
D20*
X100600000Y-113000000D03*
X104400000Y-113000000D03*
X108200000Y-113000000D03*
D21*
X112000000Y-113000000D03*
D20*
X95400000Y-105400000D03*
X95400000Y-109200000D03*
X108200000Y-85100000D03*
%TD*%
D22*
%TO.C,J104*%
X100225000Y-73212500D03*
X100225000Y-67212500D03*
D23*
X95525000Y-70212500D03*
%TD*%
D18*
%TO.C,H103*%
X204425000Y-130460000D03*
%TD*%
%TO.C,H101*%
X110000000Y-55500000D03*
%TD*%
D24*
%TO.C,J501*%
X197000000Y-113210000D03*
X197000000Y-65210000D03*
X164000000Y-113210000D03*
X164000000Y-65210000D03*
%TD*%
D25*
%TO.C,J105*%
X205200000Y-86650000D03*
D26*
X202500000Y-85650000D03*
X202500000Y-80650000D03*
D25*
X205200000Y-79650000D03*
%TD*%
D22*
%TO.C,J401*%
X110300000Y-121500000D03*
X110300000Y-127500000D03*
D23*
X115000000Y-124500000D03*
%TD*%
D27*
%TO.C,J601*%
X203370000Y-89890000D03*
D28*
X205910000Y-89890000D03*
%TD*%
D29*
%TO.C,J103*%
X171785001Y-120739942D03*
X174285002Y-120739942D03*
X176274999Y-120739942D03*
X178775000Y-120739942D03*
X179285000Y-119239941D03*
X177285000Y-119239941D03*
X175284999Y-119239941D03*
X173285002Y-119239941D03*
X171285001Y-119239941D03*
D30*
X168580001Y-122740000D03*
X181980000Y-122740000D03*
%TD*%
D31*
%TO.C,J201*%
X153715000Y-70280000D03*
X141015000Y-70280000D03*
D32*
X142290000Y-85520000D03*
D33*
X144320000Y-85520000D03*
X146350000Y-85520000D03*
X148380000Y-85520000D03*
X150410000Y-85520000D03*
X152440000Y-85520000D03*
X141275000Y-88060000D03*
X143305000Y-88060000D03*
X145335000Y-88060000D03*
X149395000Y-88060000D03*
X151425000Y-88060000D03*
X153455000Y-88060000D03*
D34*
X141775000Y-78400000D03*
X152955000Y-78400000D03*
X141775000Y-76940000D03*
X152955000Y-76940000D03*
D35*
X139300000Y-67100000D03*
X155430000Y-67100000D03*
%TD*%
D18*
%TO.C,H104*%
X99920000Y-130735000D03*
%TD*%
D29*
%TO.C,J102*%
X188945000Y-120789942D03*
X191445001Y-120789942D03*
X193434998Y-120789942D03*
X195934999Y-120789942D03*
X196444999Y-119289941D03*
X194444999Y-119289941D03*
X192444998Y-119289941D03*
X190445001Y-119289941D03*
X188445000Y-119289941D03*
D30*
X185740000Y-122790000D03*
X199139999Y-122790000D03*
%TD*%
%LPD*%
M02*
