%TF.GenerationSoftware,KiCad,Pcbnew,9.0.6*%
%TF.CreationDate,2026-03-09T12:33:13-05:00*%
%TF.ProjectId,cm5_unified_carrier,636d355f-756e-4696-9669-65645f636172,rev?*%
%TF.SameCoordinates,Original*%
%TF.FileFunction,Soldermask,Bot*%
%TF.FilePolarity,Negative*%
%FSLAX46Y46*%
G04 Gerber Fmt 4.6, Leading zero omitted, Abs format (unit mm)*
G04 Created by KiCad (PCBNEW 9.0.6) date 2026-03-09 12:33:13*
%MOMM*%
%LPD*%
G01*
G04 APERTURE LIST*
G04 Aperture macros list*
%AMRoundRect*
0 Rectangle with rounded corners*
0 $1 Rounding radius*
0 $2 $3 $4 $5 $6 $7 $8 $9 X,Y pos of 4 corners*
0 Add a 4 corners polygon primitive as box body*
4,1,4,$2,$3,$4,$5,$6,$7,$8,$9,$2,$3,0*
0 Add four circle primitives for the rounded corners*
1,1,$1+$1,$2,$3*
1,1,$1+$1,$4,$5*
1,1,$1+$1,$6,$7*
1,1,$1+$1,$8,$9*
0 Add four rect primitives between the rounded corners*
20,1,$1+$1,$2,$3,$4,$5,0*
20,1,$1+$1,$4,$5,$6,$7,0*
20,1,$1+$1,$6,$7,$8,$9,0*
20,1,$1+$1,$8,$9,$2,$3,0*%
G04 Aperture macros list end*
%ADD10C,1.531200*%
%ADD11C,0.836200*%
%ADD12C,0.010000*%
%ADD13C,6.100000*%
%ADD14O,3.220000X1.712000*%
%ADD15O,1.712000X3.220000*%
%ADD16RoundRect,0.102000X-1.270000X1.270000X-1.270000X-1.270000X1.270000X-1.270000X1.270000X1.270000X0*%
%ADD17C,2.744000*%
%ADD18C,5.600000*%
%ADD19RoundRect,0.102000X-1.102500X1.102500X-1.102500X-1.102500X1.102500X-1.102500X1.102500X1.102500X0*%
%ADD20C,2.409000*%
%ADD21C,3.234000*%
%ADD22C,1.092200*%
%ADD23C,2.692400*%
%ADD24C,2.800000*%
%ADD25R,1.408000X1.408000*%
%ADD26C,1.408000*%
%ADD27C,1.250000*%
%ADD28C,2.400000*%
G04 APERTURE END LIST*
D10*
%TO.C,J101*%
X119115600Y-69214250D02*
G75*
G02*
X117584400Y-69214250I-765600J0D01*
G01*
X117584400Y-69214250D02*
G75*
G02*
X119115600Y-69214250I765600J0D01*
G01*
D11*
X123918100Y-73534250D02*
G75*
G02*
X123081900Y-73534250I-418100J0D01*
G01*
X123081900Y-73534250D02*
G75*
G02*
X123918100Y-73534250I418100J0D01*
G01*
X126918100Y-73534250D02*
G75*
G02*
X126081900Y-73534250I-418100J0D01*
G01*
X126081900Y-73534250D02*
G75*
G02*
X126918100Y-73534250I418100J0D01*
G01*
X129918100Y-73534250D02*
G75*
G02*
X129081900Y-73534250I-418100J0D01*
G01*
X129081900Y-73534250D02*
G75*
G02*
X129918100Y-73534250I418100J0D01*
G01*
D10*
X132415600Y-69214250D02*
G75*
G02*
X130884400Y-69214250I-765600J0D01*
G01*
X130884400Y-69214250D02*
G75*
G02*
X132415600Y-69214250I765600J0D01*
G01*
D12*
X121336200Y-74370450D02*
X119663800Y-74370450D01*
X119663800Y-72698050D01*
X121336200Y-72698050D01*
X121336200Y-74370450D01*
G36*
X121336200Y-74370450D02*
G01*
X119663800Y-74370450D01*
X119663800Y-72698050D01*
X121336200Y-72698050D01*
X121336200Y-74370450D01*
G37*
%TD*%
D13*
%TO.C,J501*%
X197000000Y-113210000D03*
X197000000Y-65210000D03*
X164000000Y-113210000D03*
X164000000Y-65210000D03*
%TD*%
D14*
%TO.C,J104*%
X96900000Y-73300000D03*
X96900000Y-67300000D03*
D15*
X92200000Y-70300000D03*
%TD*%
D16*
%TO.C,PS301*%
X117460000Y-80050000D03*
D17*
X109840000Y-80050000D03*
X102220000Y-80050000D03*
X102220000Y-107990000D03*
X106030000Y-107990000D03*
X109840000Y-107990000D03*
X113650000Y-107990000D03*
X117460000Y-107990000D03*
%TD*%
D18*
%TO.C,H102*%
X206960000Y-64520000D03*
%TD*%
D19*
%TO.C,PS401*%
X93570000Y-80250000D03*
D20*
X85970000Y-80250000D03*
X78370000Y-80250000D03*
D21*
X78370000Y-108150000D03*
D20*
X82170000Y-108150000D03*
X85970000Y-108150000D03*
X89770000Y-108150000D03*
D21*
X93570000Y-108150000D03*
D20*
X76970000Y-100550000D03*
X76970000Y-104350000D03*
X89770000Y-80250000D03*
%TD*%
D18*
%TO.C,H103*%
X206960000Y-129940000D03*
%TD*%
%TO.C,H101*%
X78560000Y-64520000D03*
%TD*%
D14*
%TO.C,J401*%
X89910000Y-120885141D03*
X89910000Y-126885141D03*
D15*
X94610000Y-123885141D03*
%TD*%
D22*
%TO.C,J103*%
X171785001Y-120739942D03*
X174285002Y-120739942D03*
X176274999Y-120739942D03*
X178775000Y-120739942D03*
X179285000Y-119239941D03*
X177285000Y-119239941D03*
X175284999Y-119239941D03*
X173285002Y-119239941D03*
X171285001Y-119239941D03*
D23*
X168580001Y-122740000D03*
X181980000Y-122740000D03*
%TD*%
D24*
%TO.C,J201*%
X153715000Y-70280000D03*
X141015000Y-70280000D03*
D25*
X142290000Y-85520000D03*
D26*
X144320000Y-85520000D03*
X146350000Y-85520000D03*
X148380000Y-85520000D03*
X150410000Y-85520000D03*
X152440000Y-85520000D03*
X141275000Y-88060000D03*
X143305000Y-88060000D03*
X145335000Y-88060000D03*
X149395000Y-88060000D03*
X151425000Y-88060000D03*
X153455000Y-88060000D03*
D27*
X141775000Y-78400000D03*
X152955000Y-78400000D03*
X141775000Y-76940000D03*
X152955000Y-76940000D03*
D28*
X139300000Y-67100000D03*
X155430000Y-67100000D03*
%TD*%
D18*
%TO.C,H104*%
X78560000Y-129940000D03*
%TD*%
D22*
%TO.C,J102*%
X188945000Y-120789942D03*
X191445001Y-120789942D03*
X193434998Y-120789942D03*
X195934999Y-120789942D03*
X196444999Y-119289941D03*
X194444999Y-119289941D03*
X192444998Y-119289941D03*
X190445001Y-119289941D03*
X188445000Y-119289941D03*
D23*
X185740000Y-122790000D03*
X199139999Y-122790000D03*
%TD*%
M02*
