M48
; DRILL file {KiCad 9.0.6} date 2026-03-08T20:55:33-0500
; FORMAT={-:-/ absolute / inch / decimal}
; #@! TF.CreationDate,2026-03-08T20:55:33-05:00
; #@! TF.GenerationSoftware,Kicad,Pcbnew,9.0.6
; #@! TF.FileFunction,Plated,1,4,PTH
FMAT,2
INCH
; #@! TA.AperFunction,Plated,PTH,ViaDrill
T1C0.0118
; #@! TA.AperFunction,Plated,PTH,ComponentDrill
T2C0.0280
; #@! TA.AperFunction,Plated,PTH,ComponentDrill
T3C0.0354
; #@! TA.AperFunction,Plated,PTH,ComponentDrill
T4C0.0394
; #@! TA.AperFunction,Plated,PTH,ComponentDrill
T5C0.0402
; #@! TA.AperFunction,Plated,PTH,ComponentDrill
T6C0.0551
; #@! TA.AperFunction,Plated,PTH,ComponentDrill
T7C0.0579
; #@! TA.AperFunction,Plated,PTH,ComponentDrill
T8C0.0630
; #@! TA.AperFunction,Plated,PTH,ComponentDrill
T9C0.0770
; #@! TA.AperFunction,Plated,PTH,ComponentDrill
T10C0.0795
; #@! TA.AperFunction,Plated,PTH,ComponentDrill
T11C0.0910
; #@! TA.AperFunction,Plated,PTH,ComponentDrill
T12C0.0949
; #@! TA.AperFunction,Plated,PTH,ComponentDrill
T13C0.1260
%
G90
G05
T1
X3.1963Y-4.609
X3.2283Y-4.6129
X3.3795Y-2.9512
X3.3858Y-2.9028
X3.4134Y-2.9016
X3.4134Y-3.063
X3.4806Y-4.5157
X3.4806Y-4.5512
X3.4918Y-4.4682
X3.5264Y-4.6587
X3.5398Y-4.689
X3.6299Y-4.7593
X3.685Y-4.7593
X3.752Y-4.7593
X3.8307Y-4.7593
X4.1213Y-4.7165
X4.1299Y-4.6929
X4.4343Y-4.878
X4.4343Y-4.9173
X4.4343Y-4.9567
X4.437Y-4.5315
X4.4465Y-2.9331
X4.451Y-2.9781
X4.4606Y-5.0087
X4.4724Y-4.8307
X4.4764Y-4.4707
X4.4805Y-3.0077
X4.4961Y-5.0087
X4.512Y-3.0392
X4.5236Y-4.4707
X4.5315Y-5.0087
X4.5435Y-3.0707
X4.563Y-4.4707
X4.5693Y-4.8819
X4.5693Y-4.9173
X4.5711Y-3.0982
X4.6693Y-4.5157
X4.6865Y-4.7623
X4.689Y-4.2062
X4.7047Y-4.5157
X4.7101Y-4.7859
X4.7323Y-4.2062
X4.7402Y-4.5787
X4.7441Y-2.9606
X4.752Y-4.6693
X4.7537Y-2.9943
X4.7677Y-4.2062
X4.7813Y-3.0219
X4.7933Y-4.1201
X4.7992Y-3.3425
X4.7992Y-3.3858
X4.7992Y-4.2062
X4.8031Y-4.8278
X4.8134Y-4.4386
X4.815Y-3.4291
X4.8167Y-3.0573
X4.8189Y-4.4921
X4.8343Y-4.3972
X4.8425Y-4.8278
X4.8453Y-4.0697
X4.8453Y-4.2638
X4.8453Y-4.2992
X4.8453Y-4.3504
X4.8476Y-3.1732
X4.8543Y-3.4291
X4.8622Y-2.9646
X4.8622Y-3.0039
X4.8622Y-3.0472
X4.878Y-4.622
X4.8898Y-3.3307
X4.8898Y-3.3661
X4.8898Y-3.4016
X4.9134Y-3.4291
X4.9134Y-4.622
X4.9305Y-3.1772
X4.937Y-4.622
X4.9567Y-3.4291
X4.9884Y-4.7087
X5.0591Y-4.7555
X5.0945Y-3.1114
X5.0945Y-3.2303
X5.1014Y-4.8071
X5.1024Y-3.3543
X5.1142Y-3.122
X5.2244Y-4.8346
X5.2244Y-4.8701
X5.2244Y-4.9213
X5.2835Y-4.7555
X5.2953Y-3.5866
X5.2953Y-3.7126
X5.3031Y-3.5433
X5.3268Y-4.7555
X5.3425Y-3.4685
X5.3543Y-3.7126
X5.3858Y-3.4685
X5.3976Y-3.5276
X5.4016Y-3.5945
X5.4094Y-3.6969
X5.4134Y-3.6417
X5.5079Y-3.4724
X5.5236Y-3.5079
X5.5394Y-3.374
X5.5394Y-3.4213
X5.5433Y-3.3346
X5.5748Y-3.4213
X5.5787Y-3.315
X5.5945Y-3.5079
X5.6102Y-3.4213
X5.9551Y-4.5921
X5.9882Y-4.5921
X6.0276Y-4.7283
X6.0384Y-4.7008
X6.063Y-3.7992
X6.063Y-3.8504
X6.063Y-3.8976
X6.063Y-3.9449
X6.063Y-4.0
X6.1102Y-3.7874
X6.1535Y-3.7874
X6.185Y-3.8504
X6.189Y-3.9252
X6.189Y-3.9961
X6.3425Y-3.2205
X6.3425Y-3.8268
X6.3425Y-3.8583
X6.3425Y-3.8898
X6.4173Y-3.8425
X6.4173Y-3.878
X6.4366Y-3.3823
X6.437Y-3.3193
X6.437Y-3.4724
X6.437Y-3.5512
X6.437Y-3.6339
X6.437Y-3.6815
X6.437Y-3.7287
X6.437Y-3.7795
X6.4409Y-3.272
X6.4409Y-3.9724
X6.5354Y-3.2165
X6.748Y-4.5512
X6.7559Y-4.3622
X6.8425Y-4.3622
X6.8937Y-4.5512
X6.9291Y-4.3504
X6.9646Y-4.5512
X7.063Y-4.3425
X7.0906Y-4.5512
X7.0945Y-4.3346
X7.1378Y-4.3622
X7.1496Y-4.5512
X7.2087Y-4.4567
X7.2441Y-4.4567
X7.2913Y-4.4567
X7.4961Y-4.4567
X7.7717Y-3.3193
X7.7756Y-3.272
X7.7756Y-3.3665
X7.7756Y-3.4138
X7.7756Y-3.461
X7.7756Y-3.5083
X7.7756Y-3.5984
X7.7756Y-3.65
X7.7756Y-3.6972
X7.7756Y-3.7445
X7.7756Y-3.7917
X7.7756Y-3.839
X7.7756Y-3.8862
X7.7756Y-3.9335
X7.7756Y-3.9807
T2
X6.7435Y-4.6945
X6.7632Y-4.7535
X6.8222Y-4.6945
X6.8616Y-4.7535
X6.901Y-4.6945
X6.94Y-4.7535
X6.9797Y-4.6945
X7.0384Y-4.7535
X7.0585Y-4.6945
X7.4191Y-4.6965
X7.4388Y-4.7555
X7.4978Y-4.6965
X7.5372Y-4.7555
X7.5766Y-4.6965
X7.6156Y-4.7555
X7.6553Y-4.6965
X7.714Y-4.7555
X7.7341Y-4.6965
T3
X5.562Y-3.4669
X5.5817Y-3.0291
X5.5817Y-3.0866
X5.602Y-3.3669
X5.6419Y-3.4669
X5.6819Y-3.3669
X5.7219Y-3.4669
X5.7618Y-3.3669
X5.8417Y-3.3669
X5.8817Y-3.4669
X5.9217Y-3.3669
X5.9616Y-3.4669
X6.0016Y-3.3669
X6.0219Y-3.0291
X6.0219Y-3.0866
X6.0415Y-3.4669
T5
X4.7441Y-2.895
X4.8622Y-2.895
X4.9803Y-2.895
X5.0984Y-2.895
T6
X4.0244Y-3.1516
X4.1744Y-4.2516
X4.3244Y-3.1516
X4.3244Y-4.2516
X4.4744Y-4.2516
X4.6244Y-3.1516
T7
X3.0303Y-3.9587
X3.0303Y-4.1083
X3.0854Y-3.1594
X3.235Y-4.2579
X3.3846Y-3.1594
X3.3846Y-4.2579
X3.5343Y-3.1594
X3.5343Y-4.2579
X3.6839Y-3.1594
T8
X5.4843Y-2.6417
X6.1193Y-2.6417
T9
X4.0244Y-4.2516
X4.6244Y-4.2516
T10
X3.0854Y-4.2579
X3.6839Y-4.2579
T11
X6.637Y-4.8323
X7.1646Y-4.8323
X7.3126Y-4.8343
X7.8402Y-4.8343
T12
X4.6594Y-2.725
X5.1831Y-2.725
T13
X3.0929Y-2.5402
X3.0929Y-5.1157
X8.148Y-2.5402
X8.148Y-5.1157
T4
G00X3.5516Y-4.7593
M15
G01X3.528Y-4.7593
M16
G05
G00X3.5516Y-4.9955
M15
G01X3.528Y-4.9955
M16
G05
G00X3.7248Y-4.8656
M15
G01X3.7248Y-4.8892
M16
G05
M30
