M48
; DRILL file {KiCad 9.0.6} date 2026-04-09T11:19:00-0500
; FORMAT={-:-/ absolute / inch / decimal}
; #@! TF.CreationDate,2026-04-09T11:19:00-05:00
; #@! TF.GenerationSoftware,Kicad,Pcbnew,9.0.6
; #@! TF.FileFunction,Plated,1,4,PTH
FMAT,2
INCH
; #@! TA.AperFunction,Plated,PTH,ViaDrill
T1C0.0118
; #@! TA.AperFunction,Plated,PTH,ComponentDrill
T2C0.0197
; #@! TA.AperFunction,Plated,PTH,ComponentDrill
T3C0.0280
; #@! TA.AperFunction,Plated,PTH,ComponentDrill
T4C0.0335
; #@! TA.AperFunction,Plated,PTH,ComponentDrill
T5C0.0354
; #@! TA.AperFunction,Plated,PTH,ComponentDrill
T6C0.0394
; #@! TA.AperFunction,Plated,PTH,ComponentDrill
T7C0.0402
; #@! TA.AperFunction,Plated,PTH,ComponentDrill
T8C0.0551
; #@! TA.AperFunction,Plated,PTH,ComponentDrill
T9C0.0579
; #@! TA.AperFunction,Plated,PTH,ComponentDrill
T10C0.0630
; #@! TA.AperFunction,Plated,PTH,ComponentDrill
T11C0.0770
; #@! TA.AperFunction,Plated,PTH,ComponentDrill
T12C0.0795
; #@! TA.AperFunction,Plated,PTH,ComponentDrill
T13C0.0910
; #@! TA.AperFunction,Plated,PTH,ComponentDrill
T14C0.0949
; #@! TA.AperFunction,Plated,PTH,ComponentDrill
T15C0.1260
%
G90
G05
T1
X3.6709Y-2.9169
X3.6965Y-2.9425
X3.7163Y-2.9624
X3.7972Y-4.9764
X3.8209Y-2.8917
X3.8563Y-2.9272
X3.8669Y-3.0322
X3.878Y-2.9488
X3.9075Y-3.1476
X3.9833Y-3.2234
X3.9965Y-2.8256
X4.0472Y-3.2874
X4.0984Y-2.9843
X4.1362Y-2.9709
X4.1598Y-2.9472
X4.2028Y-3.4194
X4.2421Y-2.4339
X4.2569Y-4.5177
X4.2569Y-4.5866
X4.2657Y-3.4194
X4.3209Y-4.4488
X4.3228Y-3.4194
X4.3479Y-4.7047
X4.3935Y-4.6001
X4.4094Y-4.5276
X4.4098Y-2.4315
X4.4465Y-2.9331
X4.451Y-2.9781
X4.4805Y-3.0077
X4.512Y-3.0392
X4.5435Y-3.0707
X4.552Y-4.2516
X4.5711Y-3.0982
X4.6201Y-4.8209
X4.6244Y-3.2362
X4.6309Y-3.2884
X4.6516Y-4.8145
X4.6555Y-4.7677
X4.66Y-4.5715
X4.6742Y-3.3317
X4.6791Y-4.7913
X4.689Y-4.2062
X4.6974Y-4.5341
X4.7303Y-4.7736
X4.7323Y-4.2062
X4.7329Y-4.4986
X4.7441Y-2.9606
X4.7537Y-2.9943
X4.7677Y-4.2062
X4.7813Y-3.0219
X4.7874Y-4.6122
X4.7933Y-4.1201
X4.7992Y-3.3425
X4.7992Y-3.3858
X4.7992Y-4.2062
X4.815Y-3.4291
X4.8167Y-3.0573
X4.8307Y-4.6122
X4.8343Y-4.3972
X4.8453Y-4.0697
X4.8453Y-4.2638
X4.8453Y-4.2992
X4.8453Y-4.3504
X4.8476Y-3.1732
X4.8487Y-4.8191
X4.8543Y-3.4291
X4.8622Y-2.9646
X4.8622Y-3.0039
X4.8622Y-3.0472
X4.878Y-4.622
X4.8898Y-3.3307
X4.8898Y-3.3661
X4.8898Y-3.4016
X4.9134Y-3.4291
X4.9134Y-4.622
X4.9197Y-3.8461
X4.9197Y-3.9031
X4.9213Y-3.7831
X4.922Y-3.9701
X4.9305Y-3.1772
X4.937Y-4.622
X4.9567Y-3.4291
X4.9748Y-3.7831
X4.9884Y-4.7087
X4.9902Y-4.8917
X5.0118Y-4.9134
X5.0591Y-4.7555
X5.0945Y-3.1114
X5.1014Y-4.8071
X5.1024Y-3.3543
X5.1035Y-3.6819
X5.1976Y-3.7039
X5.1984Y-3.7539
X5.2244Y-4.8346
X5.2244Y-4.8701
X5.2244Y-4.9213
X5.2535Y-3.602
X5.2559Y-3.6543
X5.2642Y-3.2681
X5.2661Y-2.9535
X5.2835Y-4.7555
X5.3Y-3.324
X5.3079Y-3.0004
X5.3146Y-3.448
X5.3268Y-4.7555
X5.3512Y-3.4492
X5.3524Y-3.5161
X5.3531Y-3.4831
X5.3583Y-4.8386
X5.4071Y-3.8051
X5.4091Y-2.9126
X5.4098Y-2.9795
X5.4209Y-3.2965
X5.422Y-3.2457
X5.463Y-3.8067
X5.4693Y-3.0083
X5.4949Y-3.5835
X5.4992Y-3.6358
X5.5165Y-3.7138
X5.5177Y-3.4516
X5.5177Y-3.4835
X5.5181Y-3.7772
X5.5185Y-3.5201
X5.561Y-4.8425
X5.5965Y-4.8388
X5.6906Y-4.9918
X5.7086Y-4.9134
X5.7086Y-4.9567
X5.8886Y-4.7244
X5.8886Y-4.7717
X5.8886Y-4.8996
X5.8886Y-4.9508
X5.8886Y-5.0728
X5.8886Y-5.1496
X5.9053Y-4.675
X5.9551Y-4.5921
X5.9882Y-4.5921
X6.0236Y-4.9843
X6.0276Y-4.7283
X6.0384Y-4.7008
X6.063Y-3.7992
X6.063Y-3.8504
X6.063Y-3.8976
X6.063Y-3.9449
X6.063Y-4.0
X6.065Y-5.0188
X6.0807Y-4.9055
X6.1102Y-3.7874
X6.1161Y-4.9508
X6.1161Y-5.0188
X6.1535Y-3.7874
X6.185Y-3.8504
X6.189Y-3.9252
X6.189Y-3.9961
X6.3425Y-3.2205
X6.3425Y-3.8268
X6.3425Y-3.8583
X6.3425Y-3.8898
X6.3878Y-5.0764
X6.4173Y-3.8425
X6.4173Y-3.878
X6.4366Y-3.3823
X6.437Y-3.3193
X6.437Y-3.4724
X6.437Y-3.5512
X6.437Y-3.6339
X6.437Y-3.6815
X6.437Y-3.7287
X6.437Y-3.7795
X6.4409Y-3.272
X6.4409Y-3.9724
X6.5047Y-4.0217
X6.5354Y-3.2165
X6.748Y-4.5512
X6.7559Y-4.3622
X6.8425Y-4.3622
X6.89Y-4.554
X6.9291Y-4.3504
X6.9646Y-4.5512
X7.063Y-4.3425
X7.0906Y-4.5512
X7.0945Y-4.3346
X7.1378Y-4.3622
X7.1496Y-4.5512
X7.2087Y-4.4567
X7.2441Y-4.4567
X7.2913Y-4.4567
X7.4799Y-4.2933
X7.4799Y-4.3598
X7.4961Y-4.4543
X7.5067Y-4.8193
X7.7717Y-3.3193
X7.7756Y-3.272
X7.7756Y-3.3665
X7.7756Y-3.4138
X7.7756Y-3.461
X7.7756Y-3.5083
X7.7756Y-3.5984
X7.7756Y-3.65
X7.7756Y-3.6972
X7.7756Y-3.7445
X7.7756Y-3.7917
X7.7756Y-3.839
X7.7756Y-3.8862
X7.7756Y-3.9335
X7.7756Y-3.9807
X7.878Y-4.3217
X8.0138Y-4.0083
X8.0138Y-4.0539
X8.0366Y-4.185
X8.0925Y-3.1949
X8.0925Y-3.2744
X8.0925Y-3.352
T3
X6.7435Y-4.6945
X6.7632Y-4.7535
X6.8222Y-4.6945
X6.8616Y-4.7535
X6.901Y-4.6945
X6.94Y-4.7535
X6.9797Y-4.6945
X7.0384Y-4.7535
X7.0585Y-4.6945
X7.4191Y-4.6965
X7.4388Y-4.7555
X7.4978Y-4.6965
X7.5372Y-4.7555
X7.5766Y-4.6965
X7.6156Y-4.7555
X7.6553Y-4.6965
X7.714Y-4.7555
X7.7341Y-4.6965
T4
X7.9724Y-3.1752
X7.9724Y-3.372
T5
X5.6559Y-3.4654
X5.6756Y-3.0276
X5.6756Y-3.085
X5.6959Y-3.3654
X5.7358Y-3.4654
X5.7758Y-3.3654
X5.8157Y-3.4654
X5.8557Y-3.3654
X5.9356Y-3.3654
X5.9756Y-3.4654
X6.0156Y-3.3654
X6.0555Y-3.4654
X6.0955Y-3.3654
X6.1157Y-3.0276
X6.1157Y-3.085
X6.1354Y-3.4654
T6
X8.0067Y-3.539
X8.1067Y-3.539
T7
X4.7441Y-2.895
X4.8622Y-2.895
X4.9803Y-2.895
X5.0984Y-2.895
T8
X4.0244Y-3.1516
X4.1744Y-4.2516
X4.3244Y-3.1516
X4.3244Y-4.2516
X4.4744Y-4.2516
X4.6244Y-3.1516
T9
X3.7559Y-4.1496
X3.7559Y-4.2992
X3.811Y-3.3504
X3.9606Y-4.4488
X4.1102Y-3.3504
X4.1102Y-4.4488
X4.2598Y-3.3504
X4.2598Y-4.4488
X4.4094Y-3.3504
T10
X5.5781Y-2.6402
X6.2132Y-2.6402
T11
X4.0244Y-4.2516
X4.6244Y-4.2516
T12
X3.811Y-4.4488
X4.4094Y-4.4488
T13
X6.637Y-4.8323
X7.1646Y-4.8323
X7.3126Y-4.8343
X7.8402Y-4.8343
T14
X4.6594Y-2.725
X5.1831Y-2.725
T15
X3.9339Y-5.147
X4.3307Y-2.185
X8.0482Y-5.1362
X8.0512Y-2.5315
T2
G00X8.063Y-3.1358
M15
G01X8.0945Y-3.1358
M16
G05
G00X8.063Y-3.4114
M15
G01X8.0945Y-3.4114
M16
G05
T6
G00X3.7608Y-2.7761
M15
G01X3.7608Y-2.7525
M16
G05
G00X3.9341Y-2.6462
M15
G01X3.9577Y-2.6462
M16
G05
G00X3.9341Y-2.8824
M15
G01X3.9577Y-2.8824
M16
G05
G00X4.3543Y-4.7835
M15
G01X4.3307Y-4.7835
M16
G05
G00X4.3543Y-5.0197
M15
G01X4.3307Y-5.0197
M16
G05
G00X4.5276Y-4.8898
M15
G01X4.5276Y-4.9134
M16
G05
M30
